<svg xmlns="http://www.w3.org/2000/svg" xmlns:xlink="http://www.w3.org/1999/xlink" version="1.1" width="256" height="256" viewBox="0 0 256 256" xml:space="preserve">

<defs>
</defs>
<g style="stroke: none; stroke-width: 0; stroke-dasharray: none; stroke-linecap: butt; stroke-linejoin: miter; stroke-miterlimit: 10; fill: none; fill-rule: nonzero; opacity: 1;" transform="translate(1.4065934065934016 1.4065934065934016) scale(2.81 2.81)" >
	<path d="M 15.972 31.432 c -1.403 0 -2.81 -0.186 -4.182 -0.554 c -4.145 -1.111 -7.608 -3.769 -9.753 -7.484 c -2.145 -3.715 -2.715 -8.044 -1.605 -12.188 c 1.11 -4.145 3.768 -7.608 7.484 -9.753 c 3.071 -1.774 6.55 -2.473 10.067 -2.021 c 0.505 0.064 0.919 0.443 1.028 0.942 c 0.11 0.496 -0.106 1.013 -0.54 1.284 c -4.863 3.046 -6.424 9.328 -3.554 14.3 c 2.871 4.973 9.092 6.761 14.161 4.072 c 0.452 -0.239 1.008 -0.168 1.384 0.176 c 0.375 0.344 0.496 0.89 0.3 1.36 c -1.366 3.269 -3.712 5.934 -6.783 7.708 C 21.532 30.686 18.764 31.432 15.972 31.432 z M 15.909 0.707 c -2.553 0 -5.042 0.667 -7.29 1.966 c -3.39 1.956 -5.814 5.116 -6.828 8.898 c -1.013 3.781 -0.493 7.73 1.464 11.12 c 1.957 3.39 5.117 5.815 8.898 6.828 c 3.744 1.002 7.765 0.473 11.12 -1.464 c 2.644 -1.527 4.698 -3.778 5.969 -6.532 c -5.648 2.68 -12.387 0.612 -15.546 -4.86 c -3.159 -5.471 -1.58 -12.342 3.563 -15.893 C 16.809 0.728 16.358 0.707 15.909 0.707 z" style="stroke: none; stroke-width: 1; stroke-dasharray: none; stroke-linecap: butt; stroke-linejoin: miter; stroke-miterlimit: 10; fill: rgb(0,0,0); fill-rule: nonzero; opacity: 1;" transform=" matrix(2.8008 0 0 2.8008 1.9639999999999986 1.9639999999999702) " stroke-linecap="round" />
</g>
</svg>